<svg xmlns="http://www.w3.org/2000/svg" xml:space="preserve" width="1000px" height="443.274px" x="0px" y="0px" viewBox="0 0 1000 443.274"><path fill="#00458C" d="M999.938 39.4c0 .132 1.604-20.904-11.568-31.694-9.873-8.081-23.296-9.931-40.834-4.959L517.696 119.5c-2.073.727-9.507 1.993-17.651 2.073-8.133-.08-15.613-1.346-17.663-2.073L52.485 2.747C34.914-2.225 21.501-.375 11.639 7.706-1.544 18.496.082 39.532.047 39.4v382.843c0 6.356-.71 12.52 3.643 17.147 4.043 3.825 9.782 3.883 17.365 3.883H978.956c7.582 0 13.285-.058 17.34-3.883 4.377-4.628 3.643-10.791 3.643-17.147V39.4z"/><path fill="#FFF" d="M325.987 177.429h28.727v-35.353h-62.918L220.953 270.59l-70.868-128.514H86.893v35.353h28.773L108.29 337.54H80.891v35.462h94.108V337.54h-27.777l4.616-119.002 65.953 115.83h5.234l66.057-115.83 4.536 119.002H265.91v35.462h94.818V337.54h-27.364zM520.503 275.848c0-15.451-3.906-28.772-11.912-38.623-10.952-13.355-28.98-20.767-55.199-20.767-41.728 0-61.062 20.113-61.062 39.024 0 12.6 8.774 20.674 20.297 20.674 11.614 0 20.823-8.372 20.823-19.976 0-2.119-.779-5.681-1.432-7.605 3.54-1.5 8.327-2.623 15.04-2.623 13.745 0 23.894 3.196 30.216 11.202 3.849 4.982 5.945 11.993 5.945 21.121v12.336c-8.512-2.152-23.104-4.18-38.956-4.18-36.493 0-61.715 17.49-61.715 46.217 0 28.808 23.423 43.205 49.757 43.205 20.709 0 39.345-9.232 51.555-19.644v16.792h59.414v-31.648h-22.771v-65.505zm-37.284 58.52c-11.569 8.385-24.902 13.699-38.647 13.699-13.642 0-22.759-6.713-22.759-18.957 0-13.975 11.271-22.381 29.85-22.381 11.889 0 22.816 1.443 31.557 3.471v24.168zM636.304 216.453c-47.34 0-77.854 36.601-77.854 80.012 0 47.707 34.694 79.389 84.921 79.389 22.404 0 42.048-4.582 58.268-14.088l3.093-34.34c-17.881 10.103-37.203 16.059-55.76 16.059-25.668 0-45.277-10.435-50.547-34.34h110.922c.939-5.223 1.695-13 1.695-18.854 0-40.844-25.623-73.838-74.738-73.838m-38.245 66.085c4.215-25.371 21.053-35.164 37.89-35.164 22.52 0 36.173 14.077 36.871 35.164h-74.761zM771.795 195.727c13.677 0 25.978-11.271 25.978-25.262 0-14.077-11.637-25.262-25.279-25.262-13.756 0-25.988 11.185-25.988 25.262-.001 13.991 11.612 25.262 25.289 25.262M794.989 219.259h-61.771v32.318h23.527v89.777h-23.527v31.648h84.508v-31.648h-22.737zM900.253 124.889h-62.104v32.323h23.881v184.142h-23.881v31.648h84.967v-31.648h-22.863z"/></svg>